<?xml version="1.0" encoding="UTF-8" standalone="no"?>
<!DOCTYPE svg PUBLIC "-//W3C//DTD SVG 1.1//EN" "http://www.w3.org/Graphics/SVG/1.1/DTD/svg11.dtd">
<svg version="1.1" xmlns="http://www.w3.org/2000/svg" xmlns:xlink="http://www.w3.org/1999/xlink" preserveAspectRatio="xMidYMid meet" viewBox="0 0 145 75" width="145" height="75"><defs><path d="M44.77 38.62C44.77 41.38 42.53 43.62 39.77 43.62C37.01 43.62 34.77 41.38 34.77 38.62C34.77 35.86 37.01 33.62 39.77 33.62C42.53 33.62 44.77 35.86 44.77 38.62Z" id="abu3saaxE"></path><path d="M78.05 38.62C78.05 41.38 75.81 43.62 73.05 43.62C70.29 43.62 68.05 41.38 68.05 38.62C68.05 35.86 70.29 33.62 73.05 33.62C75.81 33.62 78.05 35.86 78.05 38.62Z" id="a1hLaOBSZL"></path><path d="M92.58 38.62C92.58 51.04 76 61.12 55.58 61.12C35.16 61.12 18.58 51.04 18.58 38.62C18.58 26.2 35.16 16.12 55.58 16.12C76 16.12 92.58 26.2 92.58 38.62Z" id="a6SRBmgBVx"></path><path d="M78.27 38.62C78.27 41.38 76.03 43.62 73.27 43.62C70.51 43.62 68.27 41.38 68.27 38.62C68.27 35.86 70.51 33.62 73.27 33.62C76.03 33.62 78.27 35.86 78.27 38.62Z" id="g3KE1vJpHn"></path><path d="M111.55 38.62C111.55 41.38 109.31 43.62 106.55 43.62C103.79 43.62 101.55 41.38 101.55 38.62C101.55 35.86 103.79 33.62 106.55 33.62C109.31 33.62 111.55 35.86 111.55 38.62Z" id="l7IIaBeiS"></path><path d="M127.08 38.62C127.08 51.04 110.5 61.12 90.08 61.12C69.66 61.12 53.08 51.04 53.08 38.62C53.08 26.2 69.66 16.12 90.08 16.12C110.5 16.12 127.08 26.2 127.08 38.62Z" id="g1wV4ltBO"></path><path d="M136.75 38.62C136.75 55.49 107.81 69.18 72.17 69.18C36.53 69.18 7.59 55.49 7.59 38.62C7.59 21.75 36.53 8.06 72.17 8.06C107.81 8.06 136.75 21.75 136.75 38.62Z" id="a5banVqTaF"></path><path d="M117.05 38.62C117.05 44.42 112.34 49.12 106.55 49.12C100.75 49.12 96.05 44.42 96.05 38.62C96.05 32.83 100.75 28.12 106.55 28.12C112.34 28.12 117.05 32.83 117.05 38.62Z" id="h3TEOx8d"></path><path d="M83.77 38.62C83.77 44.42 79.07 49.12 73.27 49.12C67.48 49.12 62.77 44.42 62.77 38.62C62.77 32.83 67.48 28.12 73.27 28.12C79.07 28.12 83.77 32.83 83.77 38.62Z" id="hlyOrqtwO"></path></defs><g><g><g><use xlink:href="#abu3saaxE" opacity="1" fill="#ffffff" fill-opacity="1"></use></g><g><use xlink:href="#a1hLaOBSZL" opacity="1" fill="#ffffff" fill-opacity="1"></use></g><g><use xlink:href="#a6SRBmgBVx" opacity="1" fill="#030000" fill-opacity="0"></use><g><use xlink:href="#a6SRBmgBVx" opacity="1" fill-opacity="0" stroke="#ffffff" stroke-width="2" stroke-opacity="1"></use></g></g><g><use xlink:href="#g3KE1vJpHn" opacity="1" fill="#ffffff" fill-opacity="1"></use><g><use xlink:href="#g3KE1vJpHn" opacity="1" fill-opacity="0" stroke="#c4b4e4" stroke-width="1" stroke-opacity="0"></use></g></g><g><use xlink:href="#l7IIaBeiS" opacity="1" fill="#ffffff" fill-opacity="1"></use></g><g><use xlink:href="#g1wV4ltBO" opacity="1" fill="#030000" fill-opacity="0"></use><g><use xlink:href="#g1wV4ltBO" opacity="1" fill-opacity="0" stroke="#ffffff" stroke-width="2" stroke-opacity="1"></use></g></g><g><use xlink:href="#a5banVqTaF" opacity="1" fill="#030000" fill-opacity="0"></use><g><use xlink:href="#a5banVqTaF" opacity="1" fill-opacity="0" stroke="#ffffff" stroke-width="2" stroke-opacity="1"></use></g></g><g><use xlink:href="#h3TEOx8d" opacity="1" fill="#030000" fill-opacity="0"></use><g><use xlink:href="#h3TEOx8d" opacity="1" fill-opacity="0" stroke="#ffffff" stroke-width="2" stroke-opacity="1"></use></g></g><g><use xlink:href="#hlyOrqtwO" opacity="1" fill="#030000" fill-opacity="0"></use><g><use xlink:href="#hlyOrqtwO" opacity="1" fill-opacity="0" stroke="#ffffff" stroke-width="2" stroke-opacity="1"></use></g></g></g></g></svg>